<?xml version="1.0" standalone="no"?>
<!DOCTYPE svg PUBLIC "-//W3C//DTD SVG 20010904//EN"
 "http://www.w3.org/TR/2001/REC-SVG-20010904/DTD/svg10.dtd">
<svg version="1.0" xmlns="http://www.w3.org/2000/svg"
 width="240.000000pt" height="240.000000pt" viewBox="0 0 240.000000 240.000000"
 preserveAspectRatio="xMidYMid meet">
<metadata>
Created by potrace 1.14, written by Peter Selinger 2001-2017
</metadata>
<g transform="translate(0.000000,240.000000) scale(0.100000,-0.100000)"
fill="#000000" stroke="none">
<path d="M1126 2292 c-3 -5 -20 -9 -38 -10 -18 -1 -46 -5 -63 -10 -16 -5 -38
-8 -47 -6 -10 1 -18 -1 -18 -5 0 -4 -6 -8 -12 -8 -35 -2 -147 -38 -178 -58 -8
-5 -17 -10 -20 -11 -14 -2 -85 -40 -88 -46 -2 -5 -10 -8 -18 -8 -8 0 -14 -4
-14 -10 0 -5 -7 -10 -15 -10 -8 0 -15 -4 -15 -10 0 -5 -5 -10 -11 -10 -7 0
-37 -21 -68 -47 -62 -54 -143 -133 -135 -133 3 0 -9 -15 -26 -32 -18 -18 -38
-48 -46 -65 -8 -18 -19 -33 -24 -33 -6 0 -10 -5 -10 -11 0 -6 -12 -27 -28 -47
-15 -20 -21 -33 -14 -28 6 4 2 -10 -10 -30 -12 -21 -23 -43 -25 -49 -1 -5 -13
-40 -27 -77 -13 -38 -23 -68 -21 -68 2 0 -3 -23 -11 -52 -7 -29 -14 -72 -16
-96 -1 -24 -6 -46 -10 -48 -5 -3 -5 -11 0 -17 12 -15 12 -47 0 -47 -5 0 -4 -8
1 -18 7 -13 6 -23 -1 -30 -7 -7 -8 -12 -3 -12 6 0 11 -24 12 -53 3 -65 10
-159 14 -172 2 -10 -5 -34 -23 -71 -6 -12 -21 -27 -34 -32 -12 -6 -30 -25 -39
-42 -19 -36 -17 -107 3 -115 7 -2 11 -9 7 -14 -6 -11 27 -47 74 -80 28 -20 57
-31 89 -33 6 -1 12 -4 12 -8 0 -3 15 -5 33 -5 17 1 37 -1 42 -4 6 -3 21 -7 35
-9 37 -5 104 -47 117 -74 20 -40 21 -52 5 -80 -14 -24 -31 -33 -84 -43 -33 -7
-70 -51 -72 -86 -2 -41 42 -88 80 -83 13 1 24 -1 24 -5 0 -4 21 -5 48 -3 91 7
232 9 232 2 0 -3 16 -7 35 -8 20 -2 47 -7 61 -12 14 -6 30 -8 35 -4 5 3 9 0 9
-5 0 -6 3 -10 8 -9 6 2 38 -4 102 -18 38 -8 62 -12 97 -17 17 -3 37 -8 42 -12
6 -3 11 -2 11 4 0 7 8 7 23 2 26 -9 170 -7 272 4 39 4 76 7 83 8 6 0 12 5 12
10 0 5 6 4 13 -2 8 -6 17 -8 21 -4 9 10 65 13 211 12 166 -1 175 -1 175 -12 0
-4 3 -6 8 -3 7 4 56 -4 122 -19 128 -30 177 -34 243 -21 20 5 37 11 37 15 0 4
11 14 25 21 13 7 22 16 20 20 -3 4 1 13 9 19 24 20 15 113 -14 150 -14 17 -28
31 -33 31 -22 0 -198 88 -213 106 -6 8 -13 12 -16 9 -7 -7 -68 53 -68 67 0 16
44 35 85 37 29 1 70 8 70 11 0 1 9 3 20 5 11 2 28 13 37 25 16 20 16 23 -5 55
-12 18 -25 31 -29 29 -5 -3 -8 -1 -8 5 0 5 -27 20 -60 33 -71 27 -65 41 18 44
31 2 57 3 57 4 0 1 11 4 25 6 75 14 99 24 105 45 4 10 11 19 16 19 5 0 -1 11
-12 24 -12 14 -27 22 -33 20 -20 -8 -33 36 -30 101 1 33 3 60 4 60 3 0 11 50
13 90 1 22 6 45 10 52 4 6 1 13 -5 16 -10 3 -10 7 -1 18 7 9 9 20 3 29 -5 9
-5 20 2 28 8 9 8 16 2 20 -6 4 -11 21 -11 37 0 52 -6 110 -12 120 -5 10 -8 26
-13 75 -2 14 -9 31 -16 38 -7 8 -10 18 -7 23 3 4 -1 20 -10 33 -9 14 -16 26
-14 28 5 7 -13 48 -22 48 -5 0 -9 8 -9 18 0 22 -89 168 -129 211 -16 17 -27
31 -25 31 9 0 -98 101 -152 144 -33 26 -65 51 -71 57 -7 5 -13 6 -13 2 0 -4
-4 -3 -8 4 -19 30 -258 133 -309 133 -13 0 -22 3 -20 8 3 4 -13 8 -34 9 -22 2
-47 6 -57 11 -9 4 -56 7 -104 7 -52 0 -88 4 -88 10 0 7 -3 7 -8 0 -10 -14 -46
-19 -37 -6 3 6 4 11 1 11 -3 0 -7 -4 -10 -8z"/>
</g>
</svg>
